<?xml version="1.0" encoding="iso-8859-1"?>
<!-- Generator: Adobe Illustrator 19.0.0, SVG Export Plug-In . SVG Version: 6.00 Build 0)  -->
<svg version="1.1" id="Capa_1" xmlns="http://www.w3.org/2000/svg" xmlns:xlink="http://www.w3.org/1999/xlink" x="0px" y="0px"
	 viewBox="0 0 468.028 468.028" style="enable-background:new 0 0 468.028 468.028;" xml:space="preserve">
<path style="fill:#3B869E;" d="M146.014,452.028c-4.418,0.006-8.005-3.57-8.011-7.989c-0.004-2.975,1.643-5.706,4.275-7.091
	l137.736-72.488L174.63,315.276c-4.004-1.869-5.734-6.629-3.865-10.633c0.619-1.327,1.591-2.458,2.809-3.271l87.304-58.2
	l-56.128-49.128c-3.51-2.684-4.18-7.704-1.496-11.214c2.684-3.51,7.704-4.18,11.214-1.496c0.286,0.218,0.556,0.456,0.81,0.711l64,56
	c3.33,2.904,3.675,7.957,0.771,11.287c-0.461,0.528-0.989,0.994-1.571,1.385l-84.192,56.08l107.112,49.984
	c4.004,1.869,5.735,6.629,3.866,10.633c-0.739,1.583-1.976,2.881-3.522,3.695l-152,80
	C148.592,451.713,147.313,452.028,146.014,452.028L146.014,452.028z"/>
<g>
	<path style="fill:#F7BA61;" d="M396.822,248.028c-1.666,0.002-3.289-0.521-4.64-1.496c-3.604-2.556-4.453-7.55-1.897-11.154
		c0.011-0.016,0.022-0.031,0.033-0.047c47.595-66.618,47.595-156.118,0-222.736c-2.538-3.617-1.663-8.606,1.953-11.144
		c3.572-2.507,8.494-1.688,11.063,1.84c51.573,72.183,51.573,169.161,0,241.344C401.841,246.755,399.414,248.019,396.822,248.028
		L396.822,248.028z"/>
	<path id="SVGCleanerId_0" style="fill:#F7BA61;" d="M347.614,220.252c-4.418-0.006-7.995-3.592-7.99-8.01
		c0.002-1.776,0.595-3.5,1.686-4.902c38.241-48.959,38.241-117.665,0-166.624c-2.715-3.486-2.09-8.513,1.396-11.228
		s8.513-2.09,11.228,1.396c42.741,54.741,42.741,131.547,0,186.288C352.415,219.119,350.083,220.255,347.614,220.252z"/>
	<path style="fill:#F7BA61;" d="M71.206,248.028c-2.585,0-5.01-1.248-6.512-3.352c-51.573-72.183-51.573-169.161,0-241.344
		c2.6-3.572,7.604-4.359,11.176-1.759c3.528,2.569,4.347,7.491,1.84,11.063c-47.595,66.618-47.595,156.118,0,222.736
		c2.582,3.586,1.768,8.585-1.817,11.167c-0.015,0.011-0.031,0.022-0.047,0.033C74.49,247.532,72.867,248.042,71.206,248.028z"/>
	<path id="SVGCleanerId_1" style="fill:#F7BA61;" d="M120.414,220.252c-2.469,0.004-4.802-1.133-6.32-3.08
		c-42.741-54.741-42.741-131.547,0-186.288c2.715-3.486,7.742-4.111,11.228-1.396s4.111,7.742,1.396,11.228
		c-38.241,48.959-38.241,117.665,0,166.624c2.713,3.487,2.085,8.514-1.402,11.226C123.914,219.656,122.189,220.249,120.414,220.252
		L120.414,220.252z"/>
	<g>
		<path id="SVGCleanerId_1_1_" style="fill:#F7BA61;" d="M120.414,220.252c-2.469,0.004-4.802-1.133-6.32-3.08
			c-42.741-54.741-42.741-131.547,0-186.288c2.715-3.486,7.742-4.111,11.228-1.396s4.111,7.742,1.396,11.228
			c-38.241,48.959-38.241,117.665,0,166.624c2.713,3.487,2.085,8.514-1.402,11.226C123.914,219.656,122.189,220.249,120.414,220.252
			L120.414,220.252z"/>
	</g>
	<path id="SVGCleanerId_2" style="fill:#F7BA61;" d="M169.942,192.236c-2.206-0.001-4.313-0.913-5.824-2.52
		c-34.804-36.877-34.804-94.499,0-131.376c3.001-3.243,8.063-3.438,11.305-0.437c3.243,3.001,3.438,8.063,0.437,11.305
		c-0.029,0.031-0.057,0.062-0.087,0.092c-29.013,30.718-29.013,78.738,0,109.456c3.027,3.219,2.871,8.282-0.348,11.308
		C173.941,191.46,171.98,192.237,169.942,192.236L169.942,192.236z"/>
	<g>
		<path id="SVGCleanerId_0_1_" style="fill:#F7BA61;" d="M347.614,220.252c-4.418-0.006-7.995-3.592-7.99-8.01
			c0.002-1.776,0.595-3.5,1.686-4.902c38.241-48.959,38.241-117.665,0-166.624c-2.715-3.486-2.09-8.513,1.396-11.228
			s8.513-2.09,11.228,1.396c42.741,54.741,42.741,131.547,0,186.288C352.415,219.119,350.083,220.255,347.614,220.252z"/>
	</g>
	<path id="SVGCleanerId_3" style="fill:#F7BA61;" d="M298.086,192.236c-4.418,0.002-8.002-3.578-8.004-7.996
		c-0.001-2.038,0.776-3.999,2.172-5.484c29.013-30.718,29.013-78.738,0-109.456c-3.052-3.195-2.936-8.259,0.259-11.311
		c3.195-3.052,8.259-2.936,11.311,0.259c0.029,0.03,0.058,0.061,0.087,0.092c34.804,36.877,34.804,94.499,0,131.376
		C302.399,191.323,300.292,192.235,298.086,192.236L298.086,192.236z"/>
	<g>
		<path id="SVGCleanerId_3_1_" style="fill:#F7BA61;" d="M298.086,192.236c-4.418,0.002-8.002-3.578-8.004-7.996
			c-0.001-2.038,0.776-3.999,2.172-5.484c29.013-30.718,29.013-78.738,0-109.456c-3.052-3.195-2.936-8.259,0.259-11.311
			c3.195-3.052,8.259-2.936,11.311,0.259c0.029,0.03,0.058,0.061,0.087,0.092c34.804,36.877,34.804,94.499,0,131.376
			C302.399,191.323,300.292,192.235,298.086,192.236L298.086,192.236z"/>
	</g>
	<g>
		<path id="SVGCleanerId_2_1_" style="fill:#F7BA61;" d="M169.942,192.236c-2.206-0.001-4.313-0.913-5.824-2.52
			c-34.804-36.877-34.804-94.499,0-131.376c3.001-3.243,8.063-3.438,11.305-0.437c3.243,3.001,3.438,8.063,0.437,11.305
			c-0.029,0.031-0.057,0.062-0.087,0.092c-29.013,30.718-29.013,78.738,0,109.456c3.027,3.219,2.871,8.282-0.348,11.308
			C173.941,191.46,171.98,192.237,169.942,192.236L169.942,192.236z"/>
	</g>
</g>
<path style="fill:#69B0BB;" d="M330.014,468.028c-3.65-0.002-6.835-2.473-7.744-6.008l-78.464-305.992h-19.584L145.766,462.02
	c-1.105,4.281-5.471,6.857-9.752,5.752c-4.281-1.105-6.857-5.471-5.752-9.752l80-312c0.916-3.531,4.104-5.996,7.752-5.992h32
	c3.653-0.002,6.843,2.47,7.752,6.008l80,312c1.101,4.279-1.476,8.64-5.755,9.741c-0.004,0.001-0.009,0.002-0.013,0.003
	C331.349,467.944,330.683,468.027,330.014,468.028L330.014,468.028z"/>
<path style="fill:#DC4D41;" d="M234.014,164.028c-22.091,0-40-17.909-40-40s17.909-40,40-40s40,17.909,40,40
	C273.987,146.108,256.094,164.001,234.014,164.028z"/>
<path d="M403.334,3.356c-2.601-3.572-7.604-4.359-11.176-1.758c-3.528,2.569-4.346,7.49-1.84,11.062
	c47.595,66.618,47.595,156.118,0,222.736c-2.582,3.586-1.768,8.585,1.818,11.167c0.015,0.011,0.031,0.022,0.047,0.033
	c3.593,2.564,8.583,1.733,11.152-1.856c51.573-72.183,51.573-169.161,0-241.344L403.334,3.356z"/>
<path d="M75.846,1.5c-3.593-2.564-8.583-1.733-11.152,1.856c-51.573,72.183-51.573,169.161,0,241.344
	c2.601,3.572,7.604,4.359,11.176,1.758c3.528-2.569,4.346-7.49,1.84-11.062c-47.595-66.618-47.595-156.118,0-222.736
	c2.567-3.596,1.733-8.592-1.863-11.159C75.847,1.5,75.846,1.5,75.846,1.5L75.846,1.5z"/>
<path d="M125.302,29.492c-3.48-2.697-8.486-2.075-11.2,1.392c-42.741,54.741-42.741,131.547,0,186.288
	c2.715,3.486,7.742,4.111,11.228,1.396s4.111-7.742,1.396-11.228c-38.241-48.959-38.241-117.665,0-166.624
	C129.432,37.223,128.795,32.198,125.302,29.492C125.302,29.492,125.302,29.492,125.302,29.492z"/>
<path d="M342.726,29.492c-3.467,2.714-4.089,7.72-1.392,11.2c38.241,48.959,38.241,117.665,0,166.624
	c-2.715,3.486-2.09,8.513,1.396,11.228s8.513,2.09,11.228-1.396c42.741-54.741,42.741-131.547,0-186.288
	c-2.723-3.479-7.751-4.092-11.231-1.369C342.727,29.491,342.726,29.491,342.726,29.492z"/>
<path d="M292.598,190.068c3.219,3.027,8.282,2.871,11.308-0.348c0.001-0.001,0.002-0.003,0.004-0.004
	c34.804-36.877,34.804-94.499,0-131.376c-3.001-3.243-8.063-3.438-11.305-0.437c-3.243,3.001-3.438,8.063-0.437,11.305
	c0.029,0.031,0.057,0.062,0.087,0.092c29.013,30.718,29.013,78.738,0,109.456c-3.029,3.217-2.876,8.28,0.34,11.309
	C292.595,190.065,292.597,190.067,292.598,190.068L292.598,190.068z"/>
<path d="M169.942,192.236c4.418,0.002,8.002-3.578,8.004-7.996c0.001-2.038-0.776-3.999-2.172-5.484
	c-29.013-30.718-29.013-78.738,0-109.456c3.052-3.195,2.936-8.259-0.259-11.311c-3.195-3.052-8.259-2.936-11.311,0.259
	c-0.029,0.03-0.058,0.061-0.087,0.092c-34.804,36.877-34.804,94.499,0,131.376C165.629,191.323,167.736,192.235,169.942,192.236
	L169.942,192.236z"/>
<path d="M259.878,154.284c16.852-14.284,18.933-39.525,4.649-56.377s-39.525-18.933-56.377-4.649s-18.933,39.525-4.649,56.377
	c1.42,1.675,2.974,3.23,4.649,4.649l-77.888,303.752c-1.101,4.279,1.476,8.64,5.755,9.741c0.004,0.001,0.009,0.002,0.013,0.003
	c0.649,0.164,1.315,0.247,1.984,0.248c3.65-0.002,6.835-2.473,7.744-6.008l2.672-10.4c0.448-0.127,0.884-0.293,1.304-0.496
	l149.544-78.712l22.976,89.6c0.907,3.544,4.102,6.021,7.76,6.016c0.672,0,1.341-0.083,1.992-0.248
	c4.281-1.093,6.865-5.45,5.771-9.731c-0.001-0.004-0.002-0.009-0.003-0.013L259.878,154.284z M234.014,100.028
	c13.255,0,24,10.745,24,24s-10.745,24-24,24c-13.255,0-24-10.745-24-24S220.759,100.028,234.014,100.028z M234.014,164.028
	c3.859-0.055,7.69-0.677,11.368-1.848l15.264,59.528l-43.504-38.072l5.504-21.456C226.324,163.35,230.154,163.973,234.014,164.028
	L234.014,164.028z M212.694,200.996l48.184,42.176l-71.2,47.44L212.694,200.996z M153.734,430.924l28.72-112l97.6,45.536
	L153.734,430.924z M194.286,306.796l75.304-50.208l24.856,96.944L194.286,306.796z"/>
<g>
</g>
<g>
</g>
<g>
</g>
<g>
</g>
<g>
</g>
<g>
</g>
<g>
</g>
<g>
</g>
<g>
</g>
<g>
</g>
<g>
</g>
<g>
</g>
<g>
</g>
<g>
</g>
<g>
</g>
</svg>
