<?xml version="1.0" encoding="iso-8859-1"?>
<!-- Generator: Adobe Illustrator 19.0.0, SVG Export Plug-In . SVG Version: 6.00 Build 0)  -->
<svg version="1.1" id="Capa_1" xmlns="http://www.w3.org/2000/svg" xmlns:xlink="http://www.w3.org/1999/xlink" x="0px" y="0px"
	 viewBox="0 0 512.001 512.001" style="enable-background:new 0 0 512.001 512.001;" xml:space="preserve">
<g>
	<g>
		<path d="M466.999,120.002H120.001v-10.228l320.639-80.22c8.036-2.01,12.922-10.155,10.911-18.192
			c-2.011-8.037-10.158-12.92-18.192-10.911L112.811,80.649c-8.021-12.409-21.967-20.646-37.81-20.646c-24.813,0-45,20.187-45,45
			v17.58c-17.459,6.192-30,22.865-30,42.42v301.998c0,24.813,20.187,45,45,45h421.998c24.813,0,45-20.187,45-45V165.003
			C511.999,140.189,491.812,120.002,466.999,120.002z M60,105.002c0-8.271,6.729-15,15-15c8.271,0,15,6.729,15,15v15H60V105.002z
			 M481.999,467c0,8.271-6.729,15-15,15H45.001c-8.271,0-15-6.729-15-15V165.002c0-8.271,6.729-15,15-15h60h361.998
			c8.271,0,15,6.729,15,15V467z"/>
	</g>
</g>
<g>
	<g>
		<path d="M254.999,180.001H75c-8.284,0-15,6.716-15,15v119.999c0,8.284,6.716,15,15,15h179.999c8.284,0,15-6.716,15-15V195.001
			C269.999,186.717,263.283,180.001,254.999,180.001z M239.999,300.001h-90v-45c0-8.284-6.716-15-15-15c-8.284,0-15,6.716-15,15v45
			H90v-89.999h149.999V300.001z"/>
	</g>
</g>
<g>
	<g>
		<path d="M377,300.001c-41.355,0-75,33.645-75,75c0,41.355,33.645,75,75,75c41.355,0,75-33.645,75-75
			C451.999,333.646,418.354,300.001,377,300.001z M377,420c-24.813,0-45-20.187-45-45s20.187-45,45-45s45,20.187,45,45
			S401.812,420,377,420z"/>
	</g>
</g>
<g>
	<g>
		<path d="M105,360c-24.813,0-45,20.187-45,45c0,24.813,20.187,45,45,45c24.813,0,45-20.187,45-45C150,380.187,129.813,360,105,360z
			 M105,420c-8.271,0-15-6.729-15-15s6.729-15,15-15c8.271,0,15,6.729,15,15S113.271,420,105,420z"/>
	</g>
</g>
<g>
	<g>
		<path d="M224.999,360c-24.813,0-45,20.187-45,45c0,24.813,20.187,45,45,45s45-20.187,45-45
			C269.999,380.187,249.812,360,224.999,360z M224.999,420c-8.271,0-15-6.729-15-15s6.729-15,15-15s15,6.729,15,15
			S233.27,420,224.999,420z"/>
	</g>
</g>
<g>
	<g>
		<path d="M436.999,240.001H317c-8.284,0-15,6.716-15,15c0,8.284,6.716,15,15,15h119.999c8.284,0,15-6.716,15-15
			C451.999,246.717,445.283,240.001,436.999,240.001z"/>
	</g>
</g>
<g>
	<g>
		<path d="M436.999,180.001H317c-8.284,0-15,6.716-15,15c0,8.284,6.716,15,15,15h119.999c8.284,0,15-6.716,15-15
			C451.999,186.717,445.283,180.001,436.999,180.001z"/>
	</g>
</g>
<g>
	<g>
		<circle cx="376.997" cy="374.997" r="15"/>
	</g>
</g>
<g>
</g>
<g>
</g>
<g>
</g>
<g>
</g>
<g>
</g>
<g>
</g>
<g>
</g>
<g>
</g>
<g>
</g>
<g>
</g>
<g>
</g>
<g>
</g>
<g>
</g>
<g>
</g>
<g>
</g>
</svg>
