<?xml version="1.0" encoding="utf-8"?>
<!-- Generator: Adobe Illustrator 16.0.4, SVG Export Plug-In . SVG Version: 6.00 Build 0)  -->
<!DOCTYPE svg PUBLIC "-//W3C//DTD SVG 1.1//EN" "http://www.w3.org/Graphics/SVG/1.1/DTD/svg11.dtd">
<svg version="1.1" id="Layer_1" xmlns="http://www.w3.org/2000/svg" xmlns:xlink="http://www.w3.org/1999/xlink" x="0px" y="0px"
	 width="28.35px" height="36.225px" viewBox="0 0 28.35 36.225" enable-background="new 0 0 28.35 36.225" xml:space="preserve">
<polygon fill="#231F20" points="22.448,18.233 22.472,18.202 14.096,12.117 14.067,12.076 14.054,12.085 14.041,12.076 
	14.011,12.117 5.636,18.202 5.667,18.244 5.667,23.015 9.879,23.015 9.879,20.326 14.054,17.292 18.274,20.359 18.274,23.015 
	22.487,23.015 22.487,18.233 "/>
<g>
	<path fill="#231F20" d="M22.598,24.479H5.762v4.217h5.584l-5.667,4.117l2.478,3.411l5.947-4.32l5.948,4.32l2.478-3.411
		l-5.667-4.117h5.735V24.479z M8.38,25.947H7.827v1.854H7.211v-1.854H6.66v-0.615h1.72V25.947z M9.305,27.789H8.69v-2.457h0.615
		V27.789z M10.228,25.333l-0.262,0.361l-0.497-0.361H10.228z M11.213,25.95h-0.388l-0.448,0.617l0.443,0.61h0.394v0.611h-0.709
		l-0.888-1.222l-0.001-0.002l0.898-1.232l0.7,0.002V25.95z M13.227,27.435l-0.498,0.362l-0.591-0.813v0.812h-0.615v-2.458h0.615
		v0.812l0.591-0.812l0.498,0.361l-0.631,0.868L13.227,27.435z M14.704,27.789h-0.553h-0.308h-0.308v-2.457h0.616v1.843h0.553V27.789
		z M16.302,25.945h-0.388l-0.232,0.32h0.24v0.615h-0.225l0.212,0.291h0.393v0.616h-0.697l-0.006,0.004l-0.889-1.224l-0.006-0.005
		l0.001-0.001l-0.001-0.003l0.006-0.004l0.889-1.224l0.703-0.003V25.945z M18.914,27.175v0.614h-1.092l-0.008,0.005l-0.889-1.224
		l-0.006-0.004l0.002-0.002l-0.002-0.002l0.006-0.005l0.889-1.224l0.006,0.004v-0.006h0.698v0.615H18.13l-0.447,0.617l0.443,0.61
		h0.172v-0.603h0.616V27.175z M21.699,26.569l-0.006,0.005l-0.89,1.224l-0.007-0.006V27.8h-0.836v-0.003L19.955,27.8l-0.889-1.224
		l-0.006-0.005l0.001-0.002l-0.001-0.001l0.006-0.005l0.889-1.224l0.006,0.003v-0.011h0.836v0.011l0.007-0.005l0.89,1.223
		l0.006,0.005l-0.002,0.002L21.699,26.569z"/>
	<polygon fill="#231F20" points="20.275,25.947 19.822,26.569 20.27,27.185 20.488,27.185 20.937,26.567 20.486,25.947 	"/>
</g>
</svg>
